# xmcd
#
# Track frame offsets:
#	150
#	22762
#	48750
#	73125
#	75106
#	97539
#	116362
#	140925
#	168037
#	190275
#	208050
#	234225
#	249825
#	275437
#
# Disc length: 4007 seconds
#
# Revision: 1
# Processed by: cddbd v1.5.2PL0 Copyright (c) Steve Scherf et al.
# Submitted via: audiograbber 1.83.01
#
DISCID=a50fa50e
DTITLE=Waldheim, Jack - On Second Thought...
DYEAR=2008
DGENRE=Country
TTITLE0=Moon Etc., The
TTITLE1=On Second Thought
TTITLE2=Bullet Proof Heart
TTITLE3=Prelude to a Sound
TTITLE4=Sound of Distant Thunder, The
TTITLE5=Gypsy Sunset
TTITLE6=Remember the Canon
TTITLE7=Like Wine for Chocolate
TTITLE8=Ode to Martina Dancing, An
TTITLE9=One More Night
TTITLE10=Sangria Sunrise
TTITLE11=What It Is (Regardless of Your Body)
TTITLE12=Rattle Like Bones
TTITLE13=By the Flickering Lights
EXTD=
EXTT0=
EXTT1=
EXTT2=
EXTT3=
EXTT4=
EXTT5=
EXTT6=
EXTT7=
EXTT8=
EXTT9=
EXTT10=
EXTT11=
EXTT12=
EXTT13=
PLAYORDER=
